<?xml version="1.0" encoding="UTF-8"?>
<svg width="66" height="66" viewBox="0 0 66 66" fill="none" xmlns="http://www.w3.org/2000/svg">
<path d="M26.1198 22.7446L34.5478 14.3166L37.9113 16.4488L51.606 25.1815L43.1786 33.6089L26.1198 22.7446Z" fill="black"/>
<path d="M62.1923 66H3.80769C1.71339 66 -2.84612e-06 64.2866 -2.84612e-06 62.1923V3.80769C-2.84612e-06 1.71339 1.71339 0 3.80769 0H62.1923C64.2866 0 66 1.71339 66 3.80769V62.1923C66 64.2866 64.2866 66 62.1923 66ZM63.4615 46.5293L47.5577 36.4134L55.9982 27.973L63.4611 32.7202V26.7037L38.2288 10.636L46.3263 2.53846H39.1428L33.85 7.83123L25.5366 2.53846H16.0808L30.1692 11.512L21.7288 19.9525L2.53802 7.72983V13.7463L18.0487 23.6338L2.53802 39.1445V46.3281L5.52065 43.3455C5.67307 43.8911 5.85041 44.4368 6.07933 44.9699L14.1644 63.463H20.5106L43.8775 40.0961L63.4613 52.5601L63.4615 46.5293Z" fill="black"/>
<path d="M27.6182 49.1707L29.4586 44.9698C31.0831 41.2635 30.7154 37.0247 28.4943 33.6356C26.6793 30.8558 23.8492 28.965 20.625 28.2538L22.453 26.4258L39.5115 37.2901L27.6318 49.1698L27.6182 49.1707Z" fill="black"/>
<path d="M16.6015 62.7L8.40254 43.9531C7.10781 40.9959 7.38715 37.7339 9.16408 35.0174C11.0299 32.1616 14.241 30.4607 17.7568 30.4607C21.2727 30.4607 24.4838 32.1617 26.3496 35.0174C28.1265 37.7339 28.4059 40.9953 27.1111 43.9531L18.9122 62.7C18.7094 63.1567 18.2521 63.4615 17.7444 63.4615C17.2367 63.4615 16.78 63.1567 16.5766 62.7H16.6015ZM24.1155 40.6154C24.1155 37.1126 21.2721 34.2692 17.7693 34.2692C14.2665 34.2692 11.4232 37.1126 11.4232 40.6154C11.4232 44.1182 14.2665 46.9615 17.7693 46.9615C21.2721 46.9615 24.1155 44.1182 24.1155 40.6154Z" fill="black"/>
<path d="M13.9618 40.6154C13.9618 42.7181 15.6667 44.4231 17.7695 44.4231C19.8722 44.4231 21.5771 42.7181 21.5771 40.6154C21.5771 38.5127 19.8722 36.8077 17.7695 36.8077C15.6667 36.8077 13.9618 38.5127 13.9618 40.6154Z" fill="black"/>
</svg>
