<?xml version="1.0" encoding="UTF-8"?>
<svg width="700pt" height="700pt" version="1.1" viewBox="0 0 700 700" xmlns="http://www.w3.org/2000/svg" xmlns:xlink="http://www.w3.org/1999/xlink">
 <defs>

 </defs>
 <g>
  <path d="m533.75 61.25c0 9.6641-7.8359 17.5-17.5 17.5s-17.5-7.8359-17.5-17.5 7.8359-17.5 17.5-17.5 17.5 7.8359 17.5 17.5"/>
  <path d="m428.75 35c0 9.6641-7.8359 17.5-17.5 17.5s-17.5-7.8359-17.5-17.5 7.8359-17.5 17.5-17.5 17.5 7.8359 17.5 17.5"/>
  <path d="m428.75 157.5v-43.75l8.75-8.75v-35c0-9.668-7.832-17.5-17.5-17.5h-17.5c-9.668 0-17.5 7.832-17.5 17.5v35l8.75 8.75v43.75z"/>
  <path d="m297.5 323.75c0 9.6641-7.8359 17.5-17.5 17.5s-17.5-7.8359-17.5-17.5 7.8359-17.5 17.5-17.5 17.5 7.8359 17.5 17.5"/>
  <path d="m253.75 358.75v35l8.75 8.75v43.75h35v-43.75l8.75-8.75v-35c0-9.668-7.832-17.5-17.5-17.5h-17.5c-9.668 0-17.5 7.832-17.5 17.5z"/>
  <path d="m437.5 315c0 9.6641-7.8359 17.5-17.5 17.5s-17.5-7.8359-17.5-17.5 7.8359-17.5 17.5-17.5 17.5 7.8359 17.5 17.5"/>
  <path d="m393.75 350v35l8.75 8.75v43.75h35v-43.75l8.75-8.75v-35c0-9.668-7.832-17.5-17.5-17.5h-17.5c-9.668 0-17.5 7.832-17.5 17.5z"/>
  <path d="m243.95 436.45c-4.7227 4.7266-7.6992 11.289-7.6992 18.551 0 14.523 11.727 26.25 26.25 26.25h35c7.2617 0 13.824-2.9766 18.551-7.6992 4.7227-4.7266 7.6992-11.289 7.6992-18.551 0-11.438-7.3164-21.043-17.5-24.648v15.898c0 4.8398-3.9219 8.75-8.75 8.75h-35c-4.8281 0-8.75-3.9102-8.75-8.75v-15.883c-3.7188 1.3242-7.0859 3.3711-9.8008 6.082z"/>
  <path d="m490 96.25v35l8.75 8.75v43.75h35v-43.75l8.75-8.75v-35c0-9.668-7.832-17.5-17.5-17.5h-17.5c-9.668 0-17.5 7.832-17.5 17.5z"/>
  <path d="m446.25 91.375c12.207 5.6797 23.906 12.52 35 20.371v-15.496c0-1.793 0.18359-3.543 0.52344-5.2344-11.348-7.2188-23.23-13.477-35.523-18.699z"/>
  <path d="m236.25 201.25v-43.75l8.75-8.75v-35c0-9.668-7.832-17.5-17.5-17.5h-17.5c-9.668 0-17.5 7.832-17.5 17.5v35l8.75 8.75v43.75z"/>
  <path d="m542.5 146.19v37.562c0 4.8398-3.9219 8.75-8.75 8.75h-35c-4.8281 0-8.75-3.9102-8.75-8.75v-40.129l-3.6211-3.6211h-48.879v17.5c0 4.8398-3.9219 8.75-8.75 8.75h-35c-4.8281 0-8.75-3.9102-8.75-8.75v-17.5h-8.75c-9.625 0-17.5 7.875-17.5 17.5v26.25c0 9.625 7.875 17.5 17.5 17.5h35c9.625 0 17.5 7.875 17.5 17.5 0 4.8125-1.9258 9.1875-5.1641 12.336-3.1484 3.2383-7.5234 5.1641-12.336 5.1641s-9.1875 1.9258-12.336 5.1641c-3.2383 3.1484-5.1641 7.5234-5.1641 12.336s1.9258 9.1875 5.1641 12.336c3.1484 3.2383 7.5234 5.1641 12.336 5.1641h164.68c0.035156 0.32422 0.097656 0.64844 0.14062 0.97266 0.94531 8.4844 1.4258 16.992 1.4258 25.277 0 2.9297-0.11328 5.8438-0.21875 8.75h-78.531c-9.625 0-17.5 7.875-17.5 17.5v17.5c0 9.625 7.875 17.5 17.5 17.5h17.5c4.8125 0 9.1875 1.9258 12.336 5.1641 3.2383 3.1484 5.1641 7.5234 5.1641 12.336 0 9.625-7.875 17.5-17.5 17.5h-66.379l-3.6211 3.6211v40.129c0 4.8398-3.9219 8.75-8.75 8.75h-35c-4.8281 0-8.75-3.9102-8.75-8.75v-40.129l-3.6211-3.6211h-13.879c-9.625 0-17.5 7.875-17.5 17.5v35c0 9.625 7.875 17.5 17.5 17.5h128.82c-40.66 37.957-95.18 61.25-155.07 61.25-125.44 0-227.5-102.05-227.5-227.5h61.25c14.523 0 26.25-11.727 26.25-26.25v-8.75c0-14.523 11.727-26.25 26.25-26.25h52.5c7.2617 0 13.824-2.9766 18.551-7.6992 4.7227-4.7266 7.6992-11.289 7.6992-18.551 0-14.523-11.727-26.25-26.25-26.25h-43.75v17.5c0 4.8398-3.9219 8.75-8.75 8.75h-35c-4.8281 0-8.75-3.9102-8.75-8.75v-17.5h-39.438c8.7148-15.008 18.953-28.891 30.688-41.414v-24.5c-19.312 17.781-35.691 38.449-48.527 61.695-19.773 36.008-30.223 76.793-30.223 117.97 0 135.09 109.91 245 245 245s245-109.91 245-245c0-8.9336-0.51562-18.094-1.5391-27.203-5.0078-45.422-22.664-88.227-50.961-124.11z"/>
  <path d="m376.25 71.715v-1.7148c0-5.7383 1.9062-11.016 5.0469-15.34-47.688-5.9336-94.711 1.8477-136.53 21.797 0.0625 0.76172 0.23047 1.5039 0.23047 2.293 0 4.6992-1.3398 9.0469-3.5078 12.871 1.6367 1.043 3.1836 2.2031 4.5508 3.5625 39.504-20.344 84.453-28.578 130.21-23.469z"/>
  <path d="m236.25 78.75c0 9.6641-7.8359 17.5-17.5 17.5s-17.5-7.8359-17.5-17.5 7.8359-17.5 17.5-17.5 17.5 7.8359 17.5 17.5"/>
  <use x="70" y="691.25" xlink:href="#m"/>
  <use x="102.109375" y="691.25" xlink:href="#k"/>
  <use x="123.683594" y="691.25" xlink:href="#c"/>
  <use x="153.355469" y="691.25" xlink:href="#a"/>
  <use x="182.878906" y="691.25" xlink:href="#b"/>
  <use x="203.792969" y="691.25" xlink:href="#c"/>
  <use x="233.464844" y="691.25" xlink:href="#j"/>
  <use x="280.011719" y="691.25" xlink:href="#i"/>
  <use x="311.328125" y="691.25" xlink:href="#h"/>
  <use x="355.078125" y="691.25" xlink:href="#g"/>
  <use x="391.695312" y="691.25" xlink:href="#f"/>
  <use x="406.691406" y="691.25" xlink:href="#b"/>
  <use x="427.605469" y="691.25" xlink:href="#e"/>
  <use x="458.75" y="691.25" xlink:href="#f"/>
  <use x="473.746094" y="691.25" xlink:href="#d"/>
  <use x="504.894531" y="691.25" xlink:href="#a"/>
  <use x="534.417969" y="691.25" xlink:href="#d"/>
  <use x="580.792969" y="691.25" xlink:href="#l"/>
  <use x="610.636719" y="691.25" xlink:href="#a"/>
  <use x="640.160156" y="691.25" xlink:href="#b"/>
  <use x="661.074219" y="691.25" xlink:href="#a"/>
  <use x="690.597656" y="691.25" xlink:href="#e"/>
 </g>
</svg>
