<?xml version="1.0" encoding="UTF-8"?>
<svg width="700pt" height="700pt" version="1.1" viewBox="0 0 700 700" xmlns="http://www.w3.org/2000/svg" xmlns:xlink="http://www.w3.org/1999/xlink">
 <defs>

 </defs>
 <g>
  <path d="m617.4 286.78-52.695 80.918c-0.80469 1.2461-2.1836 1.9961-3.668 1.9961-1.4805 0-2.8633-0.75-3.668-1.9961l-52.641-80.918c-0.85547-1.3398-0.91406-3.0391-0.16016-4.4336 0.75781-1.3984 2.2148-2.2734 3.8008-2.2891h27.105c-0.007812-32.289-8.4453-64.016-24.473-92.047s-39.094-51.391-66.922-67.777c-2.5898-1.4922-4.2227-4.2188-4.3164-7.2109-0.089844-2.9883 1.375-5.8125 3.8711-7.4609l29.566-19.262c3.8008-2.5859 8.8008-2.5859 12.602 0 31.141 21.801 56.57 50.793 74.125 84.512 17.559 33.719 26.727 71.176 26.73 109.19h27.105c1.6055 0 3.082 0.88672 3.8438 2.3008 0.75781 1.4141 0.67969 3.1328-0.20703 4.4766zm-93.016 86.797c-1.6445-2.4961-4.4688-3.9609-7.4609-3.8672-2.9883 0.089844-5.7188 1.7227-7.2109 4.3164-16.367 27.82-39.707 50.887-67.715 66.926-28.012 16.035-59.719 24.488-91.996 24.523v-27.105c-0.015625-1.5859-0.89062-3.043-2.2891-3.8008-1.3945-0.75391-3.0938-0.69531-4.4297 0.16016l-80.977 52.473c-1.2461 0.80469-1.9961 2.1875-1.9961 3.668 0 1.4844 0.75 2.8633 1.9961 3.668l80.922 52.695h-0.003906c1.3398 0.85547 3.0391 0.91797 4.4336 0.16016 1.3984-0.75391 2.2734-2.2109 2.2891-3.7969v-26.992c37.992-0.015624 75.422-9.1875 109.12-26.73 33.699-17.547 62.676-42.953 84.473-74.07 2.5859-3.8008 2.5859-8.8008 0-12.602zm-268.46 66.195c-27.816-16.379-50.879-39.734-66.906-67.754-16.031-28.02-24.469-59.734-24.488-92.016h27.105c1.5859-0.015625 3.043-0.89062 3.8008-2.2891 0.75391-1.3945 0.69531-3.0938-0.16016-4.4297l-52.473-80.977c-0.80469-1.2461-2.1875-1.9961-3.668-1.9961-1.4844 0-2.8633 0.75-3.668 1.9961l-52.863 80.918c-0.88672 1.3438-0.96484 3.0625-0.20703 4.4766 0.76172 1.4141 2.2383 2.3008 3.8438 2.3008h27.105c0.015625 37.992 9.1836 75.422 26.73 109.12 17.547 33.699 42.953 62.672 74.07 84.473 3.8008 2.5859 8.7969 2.5859 12.598 0l29.625-19.32c2.4219-1.6641 3.8281-4.4414 3.7383-7.375-0.089844-2.9336-1.668-5.6211-4.1836-7.1289zm100.8-427.11h-0.003906c-1.3359-0.85547-3.0352-0.91797-4.4297-0.16016-1.3984 0.75781-2.2734 2.2109-2.2891 3.8008v27.047c-37.992 0.015625-75.422 9.1836-109.12 26.73-33.699 17.547-62.672 42.953-84.473 74.07-2.5859 3.8008-2.5859 8.7969 0 12.598l19.32 29.625c1.6484 2.4961 4.4727 3.9609 7.4609 3.8711 2.9922-0.09375 5.7188-1.7266 7.2109-4.3164 16.367-27.793 39.691-50.84 67.68-66.867 27.988-16.027 59.672-24.48 91.922-24.527v27.105c0.015625 1.5859 0.89062 3.043 2.2891 3.8008 1.3945 0.75391 3.0938 0.69531 4.4297-0.16016l80.977-52.473c1.2461-0.80469 1.9961-2.1875 1.9961-3.668 0-1.4844-0.75-2.8633-1.9961-3.668zm-6.7227 229.94c-9.9219 0-19.438 3.9375-26.453 10.953s-10.953 16.531-10.953 26.453 3.9375 19.438 10.953 26.453 16.531 10.953 26.453 10.953 19.438-3.9375 26.453-10.953 10.953-16.531 10.953-26.453-3.9375-19.438-10.953-26.453-16.531-10.953-26.453-10.953zm99.23-29.344-11.309 16.352c4.3789 7.5938 7.7461 15.727 10.023 24.191l19.656 3.2461c3.4648 0.60547 6.6055 2.418 8.8711 5.1094 2.2617 2.6953 3.5039 6.1016 3.5039 9.6211v16.465-0.003906c0 3.5195-1.2422 6.9258-3.5039 9.6211-2.2656 2.6914-5.4062 4.5039-8.8711 5.1094l-19.434 3.4141c-2.3594 8.418-5.8047 16.496-10.246 24.023l11.199 16.184v0.003907c2.0156 2.8789 2.9531 6.3789 2.6445 9.8789-0.30469 3.5039-1.8398 6.7852-4.3242 9.2695l-11.648 11.648c-2.4844 2.4883-5.7695 4.0195-9.2695 4.3281-3.5039 0.30469-7.0039-0.62891-9.8828-2.6484l-16.184-11.199c-7.5938 4.3789-15.727 7.75-24.191 10.023l-3.3047 19.715c-0.60547 3.4648-2.418 6.6055-5.1094 8.8711-2.6953 2.2617-6.1016 3.5039-9.6211 3.5039h-16.461c-3.5195 0-6.9258-1.2422-9.6211-3.5039-2.6914-2.2656-4.5039-5.4062-5.1094-8.8711l-3.4141-19.434c-8.4219-2.3789-16.5-5.8398-24.023-10.305l-16.184 11.199h-0.003907c-2.8789 2.0195-6.3789 2.9531-9.8789 2.6484-3.5039-0.30859-6.7852-1.8398-9.2695-4.3281l-11.648-11.648c-2.4883-2.4844-4.0195-5.7656-4.3281-9.2695-0.30469-3.5 0.62891-7 2.6484-9.8789l11.199-16.184v-0.003906c-4.3789-7.5938-7.75-15.727-10.023-24.191l-19.715-3.2461c-3.4648-0.60547-6.6055-2.418-8.8711-5.1094-2.2617-2.6953-3.5039-6.1016-3.5039-9.6211v-16.461c0-3.5195 1.2422-6.9258 3.5039-9.6211 2.2656-2.6914 5.4062-4.5039 8.8711-5.1094l19.434-3.4141c2.3594-8.418 5.8047-16.496 10.246-24.023l-11.199-16.184v-0.003907c-2.0156-2.8789-2.9531-6.3789-2.6445-9.8789 0.30469-3.5039 1.8398-6.7852 4.3242-9.2695l11.648-11.648c2.4844-2.4883 5.7695-4.0195 9.2695-4.3281 3.5039-0.30469 7.0039 0.62891 9.8828 2.6484l16.184 11.199c7.5938-4.3789 15.727-7.75 24.191-10.023l3.3047-19.715c0.60547-3.4648 2.418-6.6055 5.1094-8.8711 2.6953-2.2617 6.1016-3.5039 9.6211-3.5039h16.465-0.003906c3.5195 0 6.9258 1.2422 9.6211 3.5039 2.6914 2.2656 4.5039 5.4062 5.1094 8.8711l3.4141 19.434c8.418 2.3594 16.496 5.8047 24.023 10.246l16.184-11.199h0.003907c2.8789-2.0156 6.3789-2.9531 9.8789-2.6445 3.5039 0.30469 6.7852 1.8398 9.2695 4.3242l11.648 11.648c2.4844 2.457 4.0312 5.707 4.3672 9.1875 0.33984 3.4766-0.55078 6.9648-2.5195 9.8516zm-39.422 66.75c0-15.863-6.3008-31.074-17.52-42.289-11.215-11.219-26.426-17.52-42.289-17.52s-31.074 6.3008-42.289 17.52c-11.219 11.215-17.52 26.426-17.52 42.289s6.3008 31.074 17.52 42.289c11.215 11.219 26.426 17.52 42.289 17.52 15.859-0.015625 31.062-6.3203 42.273-17.535 11.215-11.211 17.52-26.414 17.535-42.273z"/>
  <use x="70" y="644" xlink:href="#g"/>
  <use x="90.550781" y="644" xlink:href="#a"/>
  <use x="104.359375" y="644" xlink:href="#b"/>
  <use x="123.347656" y="644" xlink:href="#e"/>
  <use x="142.242188" y="644" xlink:href="#d"/>
  <use x="155.628906" y="644" xlink:href="#b"/>
  <use x="174.617188" y="644" xlink:href="#k"/>
  <use x="204.410156" y="644" xlink:href="#j"/>
  <use x="224.453125" y="644" xlink:href="#i"/>
  <use x="252.453125" y="644" xlink:href="#h"/>
  <use x="275.433594" y="644" xlink:href="#a"/>
  <use x="289.242188" y="644" xlink:href="#b"/>
  <use x="308.234375" y="644" xlink:href="#u"/>
  <use x="328.273438" y="644" xlink:href="#c"/>
  <use x="347.511719" y="644" xlink:href="#a"/>
  <use x="371.070312" y="644" xlink:href="#g"/>
  <use x="391.617188" y="644" xlink:href="#a"/>
  <use x="405.425781" y="644" xlink:href="#b"/>
  <use x="424.414062" y="644" xlink:href="#t"/>
  <use x="441.082031" y="644" xlink:href="#f"/>
  <use x="461.015625" y="644" xlink:href="#e"/>
  <use x="479.910156" y="644" xlink:href="#a"/>
  <use x="70" y="672" xlink:href="#s"/>
  <use x="82.183594" y="672" xlink:href="#a"/>
  <use x="95.992188" y="672" xlink:href="#c"/>
  <use x="115.226562" y="672" xlink:href="#r"/>
  <use x="154.152344" y="672" xlink:href="#d"/>
  <use x="167.535156" y="672" xlink:href="#q"/>
  <use x="187.46875" y="672" xlink:href="#b"/>
  <use x="216.207031" y="672" xlink:href="#p"/>
  <use x="239.640625" y="672" xlink:href="#c"/>
  <use x="258.878906" y="672" xlink:href="#o"/>
  <use x="278.8125" y="672" xlink:href="#f"/>
  <use x="308.492188" y="672" xlink:href="#n"/>
  <use x="329.015625" y="672" xlink:href="#a"/>
  <use x="342.820312" y="672" xlink:href="#c"/>
  <use x="362.058594" y="672" xlink:href="#m"/>
  <use x="371.65625" y="672" xlink:href="#b"/>
  <use x="390.648438" y="672" xlink:href="#l"/>
  <use x="407.242188" y="672" xlink:href="#d"/>
 </g>
</svg>
