<?xml version="1.0" encoding="UTF-8"?>
<svg width="700pt" height="700pt" version="1.1" viewBox="0 0 700 700" xmlns="http://www.w3.org/2000/svg">
 <path d="m156.61 151.05v0.035156c-3.6172 153.18 47.363 274.66 175.09 351.47 0.015625 0 0.015625 0.015625 0.035156 0.015625 10.621 6.3594 23.777 6.5742 34.574 0.54688 0.019531-0.015625 0.035156-0.015625 0.054687-0.035156 118.42-66.379 178.57-182.44 175.43-351.86-0.28125-14.945-9.8203-28.109-23.848-32.859-53.566-18.219-105.18-38.57-153.85-62.352-9.2227-4.5234-20.004-4.6992-29.422-0.47656h-0.015625c-51.574 23.234-101.61 45.141-154.18 62.949-13.906 4.6484-23.48 17.688-23.863 32.562zm167.3 129.29-40.062 40.512c-6.8125 6.8906-6.8125 18.094 0 24.984 6.8164 6.8906 17.891 6.8906 24.707 0l40.059-40.512 40.062 40.512c6.8125 6.8906 17.891 6.8906 24.703 0 6.8164-6.8906 6.8164-18.094 0-24.984l-40.059-40.512 40.059-40.512c6.8164-6.8906 6.8164-18.09 0-24.98-6.8125-6.8906-17.891-6.8906-24.703 0l-40.062 40.512-40.059-40.512c-6.8164-6.8906-17.891-6.8906-24.707 0-6.8125 6.8906-6.8125 18.09 0 24.98z" fill-rule="evenodd"/>
</svg>
